<?xml version="1.0" standalone="no"?><svg xmlns="http://www.w3.org/2000/svg" viewBox="0 0 1440 320"><path fill="#a2d9ff" fill-opacity="1" d="M0,128L40,138.7C80,149,160,171,240,192C320,213,400,235,480,240C560,245,640,235,720,224C800,213,880,203,960,197.3C1040,192,1120,192,1200,197.3C1280,203,1360,213,1400,218.7L1440,224L1440,320L1400,320C1360,320,1280,320,1200,320C1120,320,1040,320,960,320C880,320,800,320,720,320C640,320,560,320,480,320C400,320,320,320,240,320C160,320,80,320,40,320L0,320Z"></path></svg>